<svg width="114" height="114" viewBox="0 0 114 114" fill="none" xmlns="http://www.w3.org/2000/svg">
<path d="M35.3553 21.2132C39.2606 17.3079 45.5922 17.3079 49.4975 21.2132L56.5685 28.2843L42.4264 42.4264L35.3553 35.3553C31.4501 31.4501 31.4501 25.1184 35.3553 21.2132V21.2132Z" fill="#8B6465"/>
<rect x="70.7106" y="14.1421" width="20" height="60" rx="10" transform="rotate(45 70.7106 14.1421)" fill="#CE999B"/>
<path d="M56.5685 56.5685L70.7106 70.7107L49.4974 91.9239C45.5922 95.8291 39.2605 95.8291 35.3553 91.9239V91.9239C31.45 88.0186 31.45 81.687 35.3553 77.7817L56.5685 56.5685Z" fill="#311E1E"/>
<path d="M63.6395 49.4975C67.5447 45.5922 73.8764 45.5922 77.7816 49.4975V49.4975C81.6869 53.4027 81.6869 59.7344 77.7816 63.6396V63.6396C73.8764 67.5448 67.5447 67.5448 63.6395 63.6396V63.6396C59.7343 59.7344 59.7343 53.4027 63.6395 49.4975V49.4975Z" fill="#546581"/>
<path d="M70.7106 70.7107L77.7816 77.7817C81.6869 81.687 81.6869 88.0186 77.7816 91.9239V91.9239C73.8764 95.8291 67.5447 95.8291 63.6395 91.9239V91.9239C59.7343 88.0186 59.7343 81.687 63.6395 77.7817L70.7106 70.7107Z" fill="#FCB5B7"/>
</svg>
